<svg xmlns="http://www.w3.org/2000/svg" viewBox="0 0 64 64" width="64" height="64">
  <defs>
    <linearGradient id="controllerGrad" x1="0%" y1="0%" x2="100%" y2="100%">
      <stop offset="0%" style="stop-color:#8B5CF6;stop-opacity:1" />
      <stop offset="50%" style="stop-color:#06B6D4;stop-opacity:1" />
      <stop offset="100%" style="stop-color:#84CC16;stop-opacity:1" />
    </linearGradient>
  </defs>
  
  <!-- Cuerpo principal del joystick -->
  <rect x="8" y="20" width="48" height="28" rx="14" ry="14" fill="url(#controllerGrad)" stroke="#000" stroke-width="2"/>
  
  <!-- D-pad (izquierda) -->
  <rect x="14" y="28" width="8" height="3" rx="1" fill="#000"/>
  <rect x="17" y="25" width="3" height="8" rx="1" fill="#000"/>
  
  <!-- Botones de acción (derecha) -->
  <circle cx="42" cy="27" r="2.5" fill="#FF6B6B" stroke="#000" stroke-width="1"/>
  <circle cx="48" cy="32" r="2.5" fill="#4ECDC4" stroke="#000" stroke-width="1"/>
  <circle cx="42" cy="37" r="2.5" fill="#45B7D1" stroke="#000" stroke-width="1"/>
  <circle cx="36" cy="32" r="2.5" fill="#96CEB4" stroke="#000" stroke-width="1"/>
  
  <!-- Sticks analógicos -->
  <circle cx="20" cy="38" r="4" fill="#333" stroke="#000" stroke-width="1"/>
  <circle cx="20" cy="38" r="2" fill="#666"/>
  
  <circle cx="44" cy="42" r="4" fill="#333" stroke="#000" stroke-width="1"/>
  <circle cx="44" cy="42" r="2" fill="#666"/>
  
  <!-- Detalles adicionales -->
  <rect x="28" y="22" width="8" height="2" rx="1" fill="#333"/>
  <rect x="28" y="44" width="8" height="2" rx="1" fill="#333"/>
  
  <!-- Efectos de brillo -->
  <ellipse cx="32" cy="28" rx="12" ry="4" fill="rgba(255,255,255,0.3)"/>
</svg>
